<svg width="300" height="231" viewBox="0 0 300 231" fill="none" xmlns="http://www.w3.org/2000/svg">
<g filter="url(#filter0_d_23_196)">
<path d="M71.2043 94.9448C83.5144 83.0648 103.519 83.0648 115.829 94.9448L134.06 112.539L124.7 121.571L106.304 103.817C99.2293 96.9894 87.8053 96.9894 80.7307 103.817C73.5915 110.707 73.5913 121.928 80.7307 128.818L101.385 148.75L115.425 162.3L115.426 162.302C115.427 162.304 115.431 162.306 115.434 162.309L115.571 162.441C115.667 162.534 115.808 162.67 115.991 162.847C116.358 163.201 116.892 163.716 117.558 164.359C118.89 165.644 120.751 167.441 122.869 169.485L136.484 182.624L137.632 183.732L137.654 183.753C137.657 183.757 137.661 183.76 137.664 183.763L138.91 184.965C138.915 184.97 138.925 184.98 138.945 184.999C138.951 185.005 138.958 185.012 138.964 185.018L139.003 185.055C139.01 185.061 139.016 185.068 139.023 185.075C139.118 185.166 139.084 185.134 139.13 185.178L139.3 185.341C139.346 185.385 139.284 185.326 139.335 185.375C139.403 185.441 139.423 185.46 139.49 185.526C139.75 185.776 139.541 185.575 139.8 185.825L139.839 185.862C139.847 185.869 139.87 185.892 139.877 185.899C139.884 185.905 139.89 185.911 139.897 185.917C139.903 185.924 139.909 185.93 139.915 185.936L139.954 185.973C140.105 186.118 139.962 185.981 140.089 186.104L141.104 187.083C141.105 187.083 141.106 187.085 141.107 187.085C141.112 187.091 141.118 187.096 141.124 187.102C141.13 187.108 141.136 187.114 141.142 187.12C141.157 187.135 141.17 187.146 141.179 187.155L143.908 189.79C146.966 192.74 150.832 194.408 154.785 194.812C159.996 195.345 165.441 193.689 169.482 189.79C173.098 186.3 174.892 181.68 174.833 177.068L186.034 166.256C190.433 177.088 188.106 189.881 179.007 198.662C168.507 208.794 152.38 210.3 140.213 203.103C138.139 201.876 136.18 200.396 134.383 198.662L124.164 188.8L108.692 173.868L92.9133 158.64L71.2043 137.69C58.9594 125.873 58.9598 106.762 71.2043 94.9448ZM103.194 177.594C103.396 181.858 105.184 186.053 108.528 189.28C111.891 192.526 116.229 194.217 120.591 194.385L129.869 203.338C130.567 204.012 131.286 204.654 132.023 205.264C120.866 209.134 107.908 206.748 99.0012 198.152C90.1087 189.57 87.6846 177.156 91.6848 166.487L103.194 177.594ZM228.166 30.7534C240.476 18.8736 260.48 18.8735 272.79 30.7534C285.035 42.5709 285.035 61.6811 272.79 73.4985L184.722 158.492L169.246 173.426L154.026 188.115C151.961 187.653 150.014 186.648 148.422 185.112L148.409 185.099C148.405 185.095 148.382 185.074 148.37 185.062C148.349 185.041 148.334 185.027 148.324 185.018L148.099 184.8C147.977 184.683 147.806 184.518 147.67 184.386C147.573 184.292 147.501 184.222 147.44 184.164L146.347 183.109C146.344 183.106 146.342 183.104 146.339 183.101L146.274 183.038C146.258 183.022 146.224 182.99 146.207 182.974C146.099 182.87 146.248 183.014 146.14 182.91C146.134 182.904 146.127 182.897 146.119 182.89L146.016 182.79C146.013 182.787 146.01 182.784 146.005 182.779C145.987 182.761 145.989 182.763 145.971 182.746L145.936 182.712C145.904 182.681 145.934 182.711 145.902 182.679C145.87 182.649 145.898 182.677 145.866 182.646L145.832 182.612L145.797 182.579C145.537 182.327 145.776 182.558 145.513 182.304C145.439 182.233 145.298 182.096 145.222 182.023C145.116 181.92 144.735 181.552 144.621 181.443C144.604 181.426 144.486 181.312 144.468 181.295C144.42 181.25 144.362 181.193 144.314 181.147C144.298 181.131 144.019 180.862 144.004 180.848C143.729 180.583 143.675 180.53 143.42 180.285C147.049 176.782 151.17 172.806 154.612 169.485L159.923 164.359C160.589 163.717 161.123 163.201 161.489 162.847C161.673 162.67 161.814 162.534 161.91 162.441L162.047 162.309L162.057 162.299L176.096 148.75L263.265 64.6265C270.404 57.7364 270.404 46.5157 263.265 39.6255C256.19 32.798 244.766 32.798 237.692 39.6255L150.523 123.75L136.484 137.298L117.68 155.444L108.322 146.412L126.957 128.426L140.997 114.877L228.166 30.7534ZM169.158 146.412L159.8 155.444L143.42 139.636L152.78 130.604L169.158 146.412Z" fill="url(#paint0_linear_23_196)" fill-opacity="0.2"/>
<path d="M71.2043 94.9448C83.5144 83.0648 103.519 83.0648 115.829 94.9448L134.06 112.539L124.7 121.571L106.304 103.817C99.2293 96.9894 87.8053 96.9894 80.7307 103.817C73.5915 110.707 73.5913 121.928 80.7307 128.818L101.385 148.75L115.425 162.3L115.426 162.302C115.427 162.304 115.431 162.306 115.434 162.309L115.571 162.441C115.667 162.534 115.808 162.67 115.991 162.847C116.358 163.201 116.892 163.716 117.558 164.359C118.89 165.644 120.751 167.441 122.869 169.485L136.484 182.624L137.632 183.732L137.654 183.753C137.657 183.757 137.661 183.76 137.664 183.763L138.91 184.965C138.915 184.97 138.925 184.98 138.945 184.999C138.951 185.005 138.958 185.012 138.964 185.018L139.003 185.055C139.01 185.061 139.016 185.068 139.023 185.075C139.118 185.166 139.084 185.134 139.13 185.178L139.3 185.341C139.346 185.385 139.284 185.326 139.335 185.375C139.403 185.441 139.423 185.46 139.49 185.526C139.75 185.776 139.541 185.575 139.8 185.825L139.839 185.862C139.847 185.869 139.87 185.892 139.877 185.899C139.884 185.905 139.89 185.911 139.897 185.917C139.903 185.924 139.909 185.93 139.915 185.936L139.954 185.973C140.105 186.118 139.962 185.981 140.089 186.104L141.104 187.083C141.105 187.083 141.106 187.085 141.107 187.085C141.112 187.091 141.118 187.096 141.124 187.102C141.13 187.108 141.136 187.114 141.142 187.12C141.157 187.135 141.17 187.146 141.179 187.155L143.908 189.79C146.966 192.74 150.832 194.408 154.785 194.812C159.996 195.345 165.441 193.689 169.482 189.79C173.098 186.3 174.892 181.68 174.833 177.068L186.034 166.256C190.433 177.088 188.106 189.881 179.007 198.662C168.507 208.794 152.38 210.3 140.213 203.103C138.139 201.876 136.18 200.396 134.383 198.662L124.164 188.8L108.692 173.868L92.9133 158.64L71.2043 137.69C58.9594 125.873 58.9598 106.762 71.2043 94.9448ZM103.194 177.594C103.396 181.858 105.184 186.053 108.528 189.28C111.891 192.526 116.229 194.217 120.591 194.385L129.869 203.338C130.567 204.012 131.286 204.654 132.023 205.264C120.866 209.134 107.908 206.748 99.0012 198.152C90.1087 189.57 87.6846 177.156 91.6848 166.487L103.194 177.594ZM228.166 30.7534C240.476 18.8736 260.48 18.8735 272.79 30.7534C285.035 42.5709 285.035 61.6811 272.79 73.4985L184.722 158.492L169.246 173.426L154.026 188.115C151.961 187.653 150.014 186.648 148.422 185.112L148.409 185.099C148.405 185.095 148.382 185.074 148.37 185.062C148.349 185.041 148.334 185.027 148.324 185.018L148.099 184.8C147.977 184.683 147.806 184.518 147.67 184.386C147.573 184.292 147.501 184.222 147.44 184.164L146.347 183.109C146.344 183.106 146.342 183.104 146.339 183.101L146.274 183.038C146.258 183.022 146.224 182.99 146.207 182.974C146.099 182.87 146.248 183.014 146.14 182.91C146.134 182.904 146.127 182.897 146.119 182.89L146.016 182.79C146.013 182.787 146.01 182.784 146.005 182.779C145.987 182.761 145.989 182.763 145.971 182.746L145.936 182.712C145.904 182.681 145.934 182.711 145.902 182.679C145.87 182.649 145.898 182.677 145.866 182.646L145.832 182.612L145.797 182.579C145.537 182.327 145.776 182.558 145.513 182.304C145.439 182.233 145.298 182.096 145.222 182.023C145.116 181.92 144.735 181.552 144.621 181.443C144.604 181.426 144.486 181.312 144.468 181.295C144.42 181.25 144.362 181.193 144.314 181.147C144.298 181.131 144.019 180.862 144.004 180.848C143.729 180.583 143.675 180.53 143.42 180.285C147.049 176.782 151.17 172.806 154.612 169.485L159.923 164.359C160.589 163.717 161.123 163.201 161.489 162.847C161.673 162.67 161.814 162.534 161.91 162.441L162.047 162.309L162.057 162.299L176.096 148.75L263.265 64.6265C270.404 57.7364 270.404 46.5157 263.265 39.6255C256.19 32.798 244.766 32.798 237.692 39.6255L150.523 123.75L136.484 137.298L117.68 155.444L108.322 146.412L126.957 128.426L140.997 114.877L228.166 30.7534ZM169.158 146.412L159.8 155.444L143.42 139.636L152.78 130.604L169.158 146.412Z" fill="url(#paint1_linear_23_196)"/>
</g>
<g filter="url(#filter1_d_23_196)">
<path fill-rule="evenodd" clip-rule="evenodd" d="M44.9687 130.804C42.6496 122.331 41.8877 113.544 42.6786 104.864L18.1274 106.513C17.6662 115.52 18.4574 124.574 20.4969 133.415L45.237 131.753C45.146 131.438 45.0556 131.122 44.9687 130.804ZM144.249 18.3347C127.557 13.1836 109.786 12.6124 92.7973 16.6799C75.8084 20.7476 60.2241 29.3052 47.6745 41.4574C35.125 53.6098 26.07 68.9114 21.4582 85.7609C20.4954 89.2789 19.736 92.8381 19.1752 96.4202L44.3236 94.7313C44.5234 93.8832 44.7381 93.0374 44.9686 92.1951C48.4274 79.5581 55.219 68.0823 64.6311 58.968C74.0431 49.8539 85.7311 43.4349 98.4726 40.3842C111.214 37.3336 124.543 37.7621 137.062 41.6254C149.582 45.4888 160.833 52.6452 169.64 62.3455L187.687 45.9607C175.945 33.0269 160.942 23.4858 144.249 18.3347Z" fill="url(#paint2_linear_23_196)"/>
<path d="M64.631 164.031C57.9639 157.575 52.6133 149.934 48.8292 141.535L23.3144 143.248C28.2997 157.723 36.6341 170.852 47.6744 181.543C60.2242 193.695 74.3175 202.353 91.3066 206.42C98.4419 208.128 103.111 208.312 104.522 208.217C104.522 208.217 98.7957 207.564 91.2108 197.357C85.0626 189.084 83.708 182.631 83.6605 178.131C83.6605 178.131 74.0433 173.145 64.631 164.031Z" fill="url(#paint3_linear_23_196)"/>
</g>
<defs>
<filter id="filter0_d_23_196" x="44.0208" y="7.84351" width="255.953" height="221.729" filterUnits="userSpaceOnUse" color-interpolation-filters="sRGB">
<feFlood flood-opacity="0" result="BackgroundImageFix"/>
<feColorMatrix in="SourceAlpha" type="matrix" values="0 0 0 0 0 0 0 0 0 0 0 0 0 0 0 0 0 0 127 0" result="hardAlpha"/>
<feOffset dy="4"/>
<feGaussianBlur stdDeviation="9"/>
<feComposite in2="hardAlpha" operator="out"/>
<feColorMatrix type="matrix" values="0 0 0 0 0.0666667 0 0 0 0 0.0666667 0 0 0 0 0.105882 0 0 0 0.25 0"/>
<feBlend mode="plus-darker" in2="BackgroundImageFix" result="effect1_dropShadow_23_196"/>
<feBlend mode="normal" in="SourceGraphic" in2="effect1_dropShadow_23_196" result="shape"/>
</filter>
<filter id="filter1_d_23_196" x="0" y="0" width="205.687" height="230.237" filterUnits="userSpaceOnUse" color-interpolation-filters="sRGB">
<feFlood flood-opacity="0" result="BackgroundImageFix"/>
<feColorMatrix in="SourceAlpha" type="matrix" values="0 0 0 0 0 0 0 0 0 0 0 0 0 0 0 0 0 0 127 0" result="hardAlpha"/>
<feOffset dy="4"/>
<feGaussianBlur stdDeviation="9"/>
<feComposite in2="hardAlpha" operator="out"/>
<feColorMatrix type="matrix" values="0 0 0 0 0.0666667 0 0 0 0 0.0666667 0 0 0 0 0.105882 0 0 0 0.25 0"/>
<feBlend mode="plus-darker" in2="BackgroundImageFix" result="effect1_dropShadow_23_196"/>
<feBlend mode="normal" in="SourceGraphic" in2="effect1_dropShadow_23_196" result="shape"/>
</filter>
<linearGradient id="paint0_linear_23_196" x1="281.974" y1="114.708" x2="62.0208" y2="114.708" gradientUnits="userSpaceOnUse">
<stop stop-color="#7287FD"/>
<stop offset="0.5" stop-color="#B4BEFE"/>
<stop offset="1" stop-color="#7287FD"/>
</linearGradient>
<linearGradient id="paint1_linear_23_196" x1="171.997" y1="21.8435" x2="171.997" y2="207.572" gradientUnits="userSpaceOnUse">
<stop stop-color="#CBA6F7"/>
<stop offset="1" stop-color="#7287FD"/>
</linearGradient>
<linearGradient id="paint2_linear_23_196" x1="212.973" y1="104.954" x2="16.6293" y2="118.14" gradientUnits="userSpaceOnUse">
<stop stop-color="#89B4FA"/>
<stop offset="1" stop-color="#7287FD"/>
</linearGradient>
<linearGradient id="paint3_linear_23_196" x1="212.973" y1="104.954" x2="16.6293" y2="118.14" gradientUnits="userSpaceOnUse">
<stop stop-color="#89B4FA"/>
<stop offset="1" stop-color="#7287FD"/>
</linearGradient>
</defs>
</svg>
